<svg viewBox="0 0 500 500" xmlns="http://www.w3.org/2000/svg">
  <g transform="translate(0,500) scale(0.1,-0.1)" fill="#FFFFFF">
    <path d="M2120 4464 c-290 -50 -622 -205 -869 -405 -570 -458 -844 -1181 -721 -1899 21 -117 71 -303 103 -379 l14 -33 778 1361 c428 749 776 1363 774 1365 -2 2 -38 -3 -79 -10z"/>
    <path d="M2805 4461 c3 -8 353 -623 777 -1365 l771 -1349 29 79 c36 97 72 237 95 369 24 139 24 471 0 610 -87 500 -324 918 -698 1231 -257 214 -622 385 -922 432 -51 8 -57 7 -52 -7z"/>
    <path d="M2143 3302 c-194 -339 -353 -621 -353 -625 0 -4 320 -7 710 -7 391 0 710 3 710 7 0 11 -704 1243 -710 1243 -3 0 -164 -278 -357 -618z"/>
    <path d="M1232 1710 l-273 -480 29 -38 c52 -65 225 -227 310 -290 265 -196 566 -323 912 -384 100 -17 480 -17 580 0 346 61 647 188 912 384 85 63 258 225 310 290 l29 37 -273 480 -273 480 -995 0 -995 0 -273 -479z"/>
  </g>
</svg>